<?xml version="1.0" encoding="utf-8"?>
<!-- Generator: Adobe Illustrator 23.0.1, SVG Export Plug-In . SVG Version: 6.00 Build 0)  -->
<svg version="1.1" id="Layer_1" xmlns="http://www.w3.org/2000/svg" xmlns:xlink="http://www.w3.org/1999/xlink" x="0px" y="0px"
	 viewBox="0 0 47.8 15.9" style="enable-background:new 0 0 47.8 15.9;" xml:space="preserve">
<style type="text/css">
	.st0{fill:#1D252C;}
</style>
<g id="g2943" transform="matrix(1.5408393,0,0,1.5408393,-96.336841,-7.567328)">
	<path id="path38" class="st0" d="M91,13.6c-1.6,0-3.2,0-3.6,0c-0.9-0.1-1.5-0.6-1.5-1.5c0-0.6,0-1,0-1.4c0.1-0.8,0.8-1.6,1.5-1.6
		c0.3,0,1,0,2.3,0l3.9,0V7.4c0,0-3.1,0-4,0c-1.2,0-1.9,0-2.3,0c-0.9,0-1.6,0.3-2.2,0.9c-0.5,0.6-0.9,1.4-0.9,2.3c0,0.5,0,1.1,0,1.5
		c0.1,1,0.4,1.7,0.9,2.2c0.5,0.6,1.4,0.9,2.2,0.9c0.7,0,6.3,0,6.3,0v-1.6C93.6,13.6,91.9,13.6,91,13.6"/>
	<path id="path40" class="st0" d="M73.5,7.5v1.6h3.8v6.1h1.6V9.1h3.8V7.5H73.5L73.5,7.5z"/>
	<path id="path50" class="st0" d="M71.8,10.5c0-0.9-0.3-1.6-0.9-2.2c-0.6-0.6-1.6-0.9-2.2-0.9c-0.5,0-2.7,0-3.1,0
		c-0.7,0-1.2,0.2-1.5,0.4l0,0V4.9h-1.6v10.3h1.6c0,0,0-4.2,0-4.7c0.1-0.8,0.7-1.5,1.5-1.5c0.6-0.1,2.5,0,3.1,0
		c0.8,0.1,1.4,0.7,1.5,1.6c0,0.3,0,4.6,0,4.6h1.6C71.8,15.2,71.8,10.9,71.8,10.5"/>
</g>
</svg>
