<?xml version="1.0" encoding="utf-8"?>
<!-- Generator: Adobe Illustrator 23.0.1, SVG Export Plug-In . SVG Version: 6.00 Build 0)  -->
<svg version="1.1" id="Layer_1" xmlns="http://www.w3.org/2000/svg" xmlns:xlink="http://www.w3.org/1999/xlink" x="0px" y="0px"
	 viewBox="0 0 66 11.1" style="enable-background:new 0 0 66 11.1;" xml:space="preserve">
<style type="text/css">
	.st0{fill:#1D252C;}
</style>
<path class="st0" d="M3.2,11H0V0.2h5.5l6.3,8.1V0.2H15V11H9.6L3.2,2.8L3.2,11 M30.2,7.7c0,1.5-0.3,2-0.7,2.5c-0.7,0.7-1.7,1-3.5,1
	h-5.4c-1.9,0-2.9-0.2-3.5-1c-0.4-0.5-0.7-1-0.7-2.5V3.5c0-1.5,0.3-2,0.7-2.5c0.7-0.7,1.7-1,3.5-1h5.4c1.9,0,2.9,0.2,3.5,1
	c0.4,0.5,0.7,1,0.7,2.5V7.7 M25.8,8.4c0.7,0,1,0,1.2-0.2c0.2-0.1,0.2-0.3,0.2-1V3.9c0-0.6-0.1-0.8-0.2-1c-0.2-0.2-0.4-0.2-1.2-0.2
	h-5.2c-0.7,0-1,0-1.2,0.2c-0.2,0.1-0.2,0.3-0.2,1v3.3c0,0.6,0.1,0.8,0.2,1c0.2,0.2,0.4,0.2,1.2,0.2H25.8L25.8,8.4 M34.8,0.2V11h-3.3
	V0.2H34.8 M40.4,0.2h4.4l-5.9,5.1l6.7,5.8h-4.7l-6.1-5.6L40.4,0.2 M46.2,0.2h3.3V11h-3.3 M62.2,11l-1-1.9h-6.4l-1,1.9h-3.7L56,0.2
	h4.1L66,11H62.2 M55.9,6.8H60L58,2.9L55.9,6.8"/>
</svg>
