<?xml version="1.0" encoding="utf-8"?>
<!-- Generator: Adobe Illustrator 23.0.1, SVG Export Plug-In . SVG Version: 6.00 Build 0)  -->
<svg version="1.1" id="Layer_1" xmlns="http://www.w3.org/2000/svg" xmlns:xlink="http://www.w3.org/1999/xlink" x="0px" y="0px"
	 viewBox="0 0 67.7 22.3" style="enable-background:new 0 0 67.7 22.3;" xml:space="preserve">
<style type="text/css">
	.st0{fill:#1D252C;}
</style>
<g>
	<path class="st0" d="M29,11.7c0,3.2-2.5,5.6-5.6,5.6s-5.6-2.4-5.6-5.6c0-3.2,2.5-5.6,5.6-5.6C26.5,6.1,29,8.5,29,11.7z M26.5,11.7
		c0-2-1.5-3.4-3.1-3.4s-3.1,1.4-3.1,3.4c0,2,1.5,3.4,3.1,3.4S26.5,13.7,26.5,11.7z"/>
	<path class="st0" d="M41,11.7c0,3.2-2.5,5.6-5.6,5.6s-5.6-2.4-5.6-5.6c0-3.2,2.5-5.6,5.6-5.6S41,8.5,41,11.7z M38.6,11.7
		c0-2-1.5-3.4-3.1-3.4s-3.1,1.4-3.1,3.4c0,2,1.5,3.4,3.1,3.4S38.6,13.7,38.6,11.7z"/>
	<path class="st0" d="M52.6,6.5v10c0,4.1-2.4,5.8-5.3,5.8c-2.7,0-4.3-1.8-4.9-3.3l2.1-0.9c0.4,0.9,1.3,2,2.8,2c1.8,0,3-1.1,3-3.3V16
		h-0.1c-0.5,0.7-1.6,1.3-2.9,1.3c-2.8,0-5.3-2.4-5.3-5.6c0-3.2,2.5-5.6,5.3-5.6c1.3,0,2.4,0.6,2.9,1.2h0.1V6.5L52.6,6.5L52.6,6.5z
		 M50.4,11.7c0-2-1.3-3.4-3-3.4c-1.7,0-3.1,1.4-3.1,3.4c0,1.9,1.4,3.4,3.1,3.4C49.1,15.1,50.4,13.7,50.4,11.7z"/>
	<path class="st0" d="M56.4,0.6v16.3H54V0.6H56.4z"/>
	<path class="st0" d="M65.7,13.5l1.9,1.3c-0.6,0.9-2.1,2.5-4.6,2.5c-3.2,0-5.5-2.5-5.5-5.6c0-3.3,2.4-5.6,5.3-5.6
		c2.9,0,4.3,2.3,4.8,3.5l0.2,0.6l-7.5,3.1c0.6,1.1,1.5,1.7,2.7,1.7C64.2,15.1,65.1,14.5,65.7,13.5L65.7,13.5z M59.9,11.5l5-2.1
		c-0.3-0.7-1.1-1.2-2.1-1.2C61.6,8.3,59.8,9.4,59.9,11.5z"/>
	<path class="st0" d="M8.8,10.3V7.9h8c0.1,0.4,0.1,0.9,0.1,1.4c0,1.8-0.5,4-2,5.5c-1.5,1.6-3.5,2.4-6,2.4C4,17.3,0,13.4,0,8.6
		S4,0,8.8,0c2.6,0,4.5,1,5.9,2.4L13,4.1c-1-0.9-2.4-1.7-4.3-1.7c-3.5,0-6.2,2.8-6.2,6.3s2.7,6.3,6.2,6.3c2.3,0,3.5-0.9,4.4-1.7
		c0.7-0.7,1.1-1.6,1.3-2.9L8.8,10.3z"/>
</g>
</svg>
