<?xml version="1.0" encoding="utf-8"?>
<!-- Generator: Adobe Illustrator 24.0.3, SVG Export Plug-In . SVG Version: 6.00 Build 0)  -->
<svg version="1.1" id="Layer_1" xmlns="http://www.w3.org/2000/svg" xmlns:xlink="http://www.w3.org/1999/xlink" x="0px" y="0px"
	 viewBox="0 0 350.6 345.78" style="enable-background:new 0 0 350.6 345.78;" xml:space="preserve">
<style type="text/css">
	.st0{fill:#1D1D1B;}
</style>
<path class="st0" d="M39.85,106.51c1.09,20.25,16.32,32.26,16.32,32.26c24.55,23.89,84.01,54.13,97.81,61
	c0.19,0.04,0.91,0.29,1.33-0.24c0,0,0.58-0.47,0.28-1.21C117.75,115.67,65.99,53,65.99,53S37.83,79.73,39.85,106.51"/>
<path class="st0" d="M45.86,222.54c10.74,19.14,28.83,33.99,47.65,29.4c13-3.2,42.44-23.78,52.14-30.74h-0.01
	c0.73-0.69,0.48-1.23,0.48-1.23c-0.25-0.86-1.28-0.86-1.28-0.86v-0.05L45.86,222.54z"/>
<path class="st0" d="M17.45,143.93v18.66c1.49,9.48,4.74,15.5,4.74,15.5c10.74,22.69,31.21,29.58,31.21,29.58
	c9.51,3.87,18.95,4.13,18.95,4.13c0.08,0.02,0.32,0.03,0.71,0.04h55.31c7.71-0.03,14.31-0.05,18.22-0.07
	c0.66-0.03,1.01-0.66,1.01-0.66c0.49-0.79-0.35-1.48-0.35-1.48c-43.48-29.34-127.72-74.37-127.72-74.37
	C18.58,138.23,17.9,141.14,17.45,143.93"/>
<path class="st0" d="M138.25,13.29c-26.22,6.81-32.4,30.58-32.4,30.58c-4.8,14.96,0.13,31.39,0.13,31.39
	c8.74,38.81,51.77,102.58,61.03,115.97c0.65,0.65,1.17,0.37,1.17,0.37c0.99-0.25,0.91-1.22,0.91-1.22l0.03,0.01
	C183.36,48,154.17,10.25,154.17,10.25C149.87,10.67,138.25,13.29,138.25,13.29"/>
<path class="st0" d="M186.18,190.49c0.12,0.89,0.76,1.09,0.76,1.09c0.95,0.38,1.42-0.54,1.42-0.54l0.02,0.02
	c9.5-13.74,52.29-77.17,61-115.8c0,0,4.71-18.72,0.16-31.39c0,0-6.47-24.14-32.72-30.54c0,0-7.56-1.91-15.58-3.08
	C201.24,10.25,171.9,48.03,186.18,190.49"/>
<path class="st0" d="M210.38,219.15c0,0-0.87,0.13-1.11,0.75c0,0-0.2,0.87,0.36,1.33v0.03c9.47,6.77,38.19,26.87,52.04,30.76
	c0,0,25.59,8.73,47.8-29.46l-99.08-3.44V219.15z"/>
<path class="st0" d="M208.2,209.54v0.02c0,0-0.8,0.53-0.5,1.47c0,0,0.39,0.71,0.99,0.71c15.58,0.05,74.54,0.11,76.03-0.14
	c0,0,7.59-0.35,17.01-3.93c0,0,20.98-6.68,31.87-30.49c0,0,9.72-19.43,2.21-42.11C335.81,135.07,251.68,180.23,208.2,209.54"/>
<path class="st0" d="M199.95,197.93L199.95,197.93c0.01,0-0.42,0.96,0.28,1.6c0,0,0.7,0.49,1.34,0.12
	c14.17-7.05,73.17-37.07,97.62-60.88c0,0,15.46-12.44,16.3-32.38C317.24,78.66,289.36,53,289.36,53S237.75,115.47,199.95,197.93"/>
<polygon class="st0" points="28.34,301.48 54.6,301.48 54.6,280.52 66.42,280.52 66.42,332.33 54.6,332.33 54.6,310.7 28.34,310.7 
	28.34,332.33 16.55,332.33 16.55,280.52 28.34,280.52 "/>
<path class="st0" d="M87.82,311.57c0,9.13,2.88,12.95,12.65,12.95c9.77,0,12.57-3.81,12.57-12.95v-31.05h11.8v31.31
	c0,6.62-0.78,11.18-3.29,13.92c-4.63,5.07-11.31,7.12-21.08,7.12c-9.77,0-16.58-2.05-21.16-7.12c-2.58-2.78-3.2-7.35-3.2-13.92
	v-31.31h11.71V311.57z"/>
<path class="st0" d="M148.45,310.76h16.71l-8.5-19.88L148.45,310.76z M163.38,280.51l23.9,51.82h-13.14l-5.17-12.34h-24.35l-5,12.34
	h-12.5l23.75-51.82H163.38z"/>
<polygon class="st0" points="192.62,280.51 205.6,320.35 216.53,280.51 230.44,280.51 243.01,320.35 255.12,280.51 267.21,280.51 
	249.89,332.34 235.42,332.34 223.47,293.65 213.01,332.34 198.65,332.34 179.96,280.51 "/>
<path class="st0" d="M283.1,301.57h32.64v9.04h-32.71c0.07,9.29,4.07,12.7,13.35,12.7h19.36v9.03h-19.92
	c-6.78,0-12.02-0.54-17.49-4.55c-5.77-4.23-8.58-11.04-8.58-20.42c0-18.31,8.36-26.85,26.39-26.85h19.61v9.04h-19.36
	C287.86,289.55,283.58,293.45,283.1,301.57"/>
<rect x="326.14" y="280.52" class="st0" width="12.32" height="51.82"/>
</svg>
