<?xml version="1.0" encoding="utf-8"?>
<!-- Generator: Adobe Illustrator 23.0.1, SVG Export Plug-In . SVG Version: 6.00 Build 0)  -->
<svg version="1.1" id="Layer_1" xmlns="http://www.w3.org/2000/svg" xmlns:xlink="http://www.w3.org/1999/xlink" x="0px" y="0px"
	 viewBox="0 0 85.4 21.5" style="enable-background:new 0 0 85.4 21.5;" xml:space="preserve">
<style type="text/css">
	.st0{fill:#1D252C;}
</style>
<g>
	<g>
		<path class="st0" d="M8.9,6.2c-0.9,0-2.2-1-3.6-0.9c-1.8,0-3.5,1.1-4.4,2.7c-1.9,3.3-0.5,8.1,1.4,10.8c0.9,1.3,2,2.8,3.4,2.7
			c1.4-0.1,1.9-0.9,3.5-0.9c1.6,0,2.1,0.9,3.6,0.9c1.5,0,2.4-1.3,3.3-2.6c1-1.5,1.5-3,1.5-3.1c0,0-2.8-1.1-2.9-4.4
			c0-2.7,2.2-4,2.3-4.1c-1.3-1.9-3.2-2.1-3.9-2.1C11.2,5.1,9.7,6.2,8.9,6.2z M11.9,3.4C12.7,2.5,13.2,1.2,13,0
			C12,0,10.7,0.7,9.9,1.6C9.2,2.4,8.6,3.7,8.7,5C9.9,5,11.2,4.3,11.9,3.4"/>
	</g>
	<path class="st0" d="M25.4,6.1c0-0.6,0.5-1.1,1.1-1.1s1.1,0.5,1.1,1.1s-0.5,1.2-1.1,1.2C25.9,7.2,25.4,6.7,25.4,6.1z M25.7,9.3h1.7
		v10.3h-1.7V9.3z M35.7,5.9c2.6,0,4.4,1.8,4.4,4.5c0,2.6-1.8,4.4-4.5,4.4h-3.5v4.9h-1.7V5.9H35.7z M32.2,13.2h3c2,0,3.1-1.1,3.1-2.9
		c0-1.9-1.1-2.9-3.1-2.9h-3V13.2z M42.7,5.2h1.7V11h0.2c0.5-1.1,1.6-1.8,3.2-1.8c2.2,0,3.6,1.4,3.6,3.8v6.7h-1.7v-6.3
		c0-1.8-0.8-2.8-2.4-2.8c-1.8,0-2.9,1.2-2.9,2.9v6.1h-1.7L42.7,5.2L42.7,5.2z M53.5,14.5c0-3.3,1.8-5.3,4.8-5.3s4.8,2,4.8,5.4
		s-1.8,5.3-4.8,5.3S53.5,17.8,53.5,14.5z M61.4,14.5c0-2.5-1.1-3.9-3.1-3.9s-3.1,1.4-3.1,3.9c0,2.4,1.1,3.9,3.1,3.9
		S61.4,17,61.4,14.5z M65.5,9.3H67V11h0.2c0.5-1.1,1.5-1.8,3.1-1.8c2.3,0,3.6,1.4,3.6,3.8v6.7h-1.7v-6.3c0-1.9-0.8-2.8-2.4-2.8
		c-1.7,0-2.7,1.1-2.7,2.9v6.1h-1.7L65.5,9.3L65.5,9.3z M85.2,17c-0.5,1.8-2.1,2.9-4.3,2.9c-2.9,0-4.7-2.1-4.7-5.3
		c0-3.3,1.8-5.4,4.7-5.4c2.8,0,4.5,2,4.5,5.2V15h-7.4v0.1c0.1,2,1.2,3.3,3,3.3c1.3,0,2.2-0.5,2.7-1.4H85.2z M77.9,13.7h5.7
		c0-1.8-1.1-3-2.8-3S78.1,11.8,77.9,13.7z"/>
</g>
</svg>
