<?xml version="1.0" encoding="utf-8"?>
<!-- Generator: Adobe Illustrator 23.0.1, SVG Export Plug-In . SVG Version: 6.00 Build 0)  -->
<svg version="1.1" id="Layer_1" xmlns="http://www.w3.org/2000/svg" xmlns:xlink="http://www.w3.org/1999/xlink" x="0px" y="0px"
	 viewBox="0 0 96.6 24.5" style="enable-background:new 0 0 96.6 24.5;" xml:space="preserve">
<style type="text/css">
	.st0{fill:#1D252C;}
</style>
<g>
	<g id="Layer_1-2">
		<path class="st0" d="M11.1,0C5,0,0,4.9,0,11.1s5,11.1,11.1,11.1s11.1-5,11.1-11.1C22.1,5,17.2,0,11.1,0C11.1,0,11.1,0,11.1,0z
			 M17.8,16.7c0,0-0.5-2.4-1.4-3.9c-0.5-0.8-1.2-1.4-2.2-1.4c-0.7,0-1.3,0.4-2,1.4c-0.4,0.7-0.8,1.4-1.1,2.2c0,0-0.3-0.6-0.6-1.2
			c-0.2-0.3-0.4-0.7-0.6-1c-0.7-1-1.3-1.4-2-1.4c-1,0-1.7,0.6-2.2,1.4c-0.9,1.4-1.4,3.9-1.4,3.9H3.5L7.8,2.7L11,13.6l0,0l0,0
			l3.3-10.9l4.2,13.9H17.8z"/>
		<path class="st0" d="M61.4,6.2c-2.7,0-4.9,2.2-4.9,4.9s2.2,4.9,4.9,4.9s4.9-2.2,4.9-4.9S64.1,6.2,61.4,6.2z M61.4,14.1
			c-1.7,0-3-1.4-3-3.1s1.4-3,3-3s3,1.4,3,3C64.4,12.8,63.1,14.1,61.4,14.1L61.4,14.1z M53.5,12.1V8h2.3V6.2h-2.3V3.8h-1.8v8.4
			c0,2.1,1.7,3.8,3.8,3.8c0,0,0,0,0,0h0.4v-1.8h-0.4C54.4,14.1,53.5,13.2,53.5,12.1C53.5,12.1,53.5,12.1,53.5,12.1z M77.7,6.2
			c-2.7,0-4.9,2.2-4.9,4.9s2.2,4.9,4.9,4.9s4.9-2.2,4.9-4.9S80.4,6.2,77.7,6.2z M77.7,14.1c-1.7,0-3-1.4-3-3s1.4-3,3-3s3,1.4,3,3
			S79.4,14.1,77.7,14.1L77.7,14.1z M91.7,6.2c-2.7,0-4.9,2.2-4.9,4.9c0,2.7,2.2,4.9,4.9,4.9c1.1,0,2.2-0.4,3.1-1.1v1h1.7v-4.6
			c0-0.1,0-0.1,0-0.1C96.6,8.4,94.4,6.2,91.7,6.2L91.7,6.2L91.7,6.2z M91.7,14.1c-1.7,0-3-1.4-3-3s1.4-3,3-3s3,1.4,3,3
			S93.4,14.1,91.7,14.1L91.7,14.1z M67.5,10v5.8h1.8V10c0-1.1,0.9-2,2-2h0.9V6.2h-0.9C69.2,6.2,67.5,7.9,67.5,10z M83.8,15.8h1.8
			v-12h-1.8V15.8z M35.7,6.2c-1.1,0-2.2,0.5-2.9,1.3c-1.4-1.6-3.8-1.8-5.4-0.4c-0.9,0.7-1.3,1.8-1.3,2.9v5.8h1.8V10
			c0-1.1,0.8-2,1.9-2.1c1.1,0,2,0.8,2.1,1.9c0,0.1,0,0.1,0,0.2v5.8h1.8V10c0-1.1,0.8-2,1.9-2.1c1.1,0,2,0.8,2.1,1.9
			c0,0.1,0,0.1,0,0.2v5.8h1.8V10C39.5,7.9,37.8,6.2,35.7,6.2z M45.6,6.2c-2.7,0-4.9,2.2-4.9,4.9c0,2.7,2.2,4.9,4.9,4.9
			s4.9-2.2,4.9-4.9v0C50.4,8.4,48.2,6.2,45.6,6.2z M45.6,14.1c-1.7,0-3-1.4-3-3.1s1.4-3,3-3s3,1.4,3,3
			C48.6,12.8,47.2,14.1,45.6,14.1L45.6,14.1z"/>
		<path class="st0" d="M30,23.5h-0.5l-0.5-1H27l-0.5,1h-0.4l1.7-3.8h0.4L30,23.5z M28,20.2l-0.9,1.9h1.7L28,20.2z"/>
		<path class="st0" d="M31.9,19.7h0.4v3.4h2.1v0.4h-2.6V19.7z"/>
		<path class="st0" d="M36.2,23.2c0.3,0,0.7-0.1,0.9-0.4l0.3,0.2c-0.3,0.4-0.7,0.5-1.2,0.5c-0.8,0-1.4-0.7-1.4-1.5
			c0-0.7,0.6-1.3,1.4-1.4c0.8,0,1.3,0.7,1.3,1.5c0,0,0,0.1,0,0.1h-2.2C35.2,22.8,35.6,23.3,36.2,23.2z M37,22c0-0.5-0.3-1-0.9-1
			c-0.5,0-0.9,0.5-0.9,1H37z"/>
		<path class="st0" d="M38.4,23.5H38v-2.8h0.4v0.5c0.2-0.4,0.6-0.6,1-0.5c0.6,0,1,0.4,1.1,1c0,0,0,0.1,0,0.2v1.7H40v-1.6
			c0-0.4-0.2-0.8-0.6-0.8c0,0-0.1,0-0.1,0c-0.5,0-0.8,0.4-0.8,0.8c0,0,0,0,0,0V23.5z"/>
		<path class="st0" d="M42.4,23.6c-0.8,0-1.5-0.6-1.5-1.4c0,0,0,0,0,0c0-0.8,0.7-1.5,1.5-1.5s1.5,0.7,1.5,1.5S43.2,23.6,42.4,23.6
			C42.4,23.6,42.4,23.6,42.4,23.6z M42.4,21c-0.6,0-1,0.5-1,1c0,0,0,0,0,0.1c0,0.6,0.4,1.1,1,1.1c0,0,0,0,0,0c0.6,0,1-0.5,1-1
			c0,0,0,0,0,0C43.4,21.6,43,21.1,42.4,21C42.4,21,42.4,21,42.4,21L42.4,21z"/>
		<path class="st0" d="M46.3,20.7h0.4l-1.2,2.8h-0.4l-1.2-2.8h0.5l1,2.3L46.3,20.7z"/>
		<path class="st0" d="M48.3,23.6c-0.8,0-1.5-0.6-1.5-1.4c0,0,0,0,0,0c0-0.8,0.7-1.5,1.5-1.5s1.5,0.7,1.5,1.5S49.2,23.6,48.3,23.6
			C48.3,23.6,48.3,23.6,48.3,23.6z M48.3,21c-0.6,0-1,0.5-1,1c0,0,0,0,0,0c0,0.6,0.4,1.1,1,1.1c0,0,0,0,0,0c0.6,0,1-0.5,1-1
			c0,0,0,0,0,0C49.4,21.6,49,21.1,48.3,21C48.4,21,48.3,21,48.3,21L48.3,21z"/>
		<path class="st0" d="M53.6,23.6c-1.1,0-1.9-1-1.9-2c0-1,0.9-1.9,1.9-1.9c0.6,0,1.1,0.2,1.5,0.6l-0.3,0.3c-0.3-0.3-0.7-0.5-1.2-0.5
			c-0.9,0.1-1.5,0.8-1.5,1.7c0,0.8,0.7,1.4,1.5,1.5c0.5,0,0.9-0.2,1.2-0.6l0.3,0.3C54.7,23.4,54.2,23.6,53.6,23.6z"/>
		<path class="st0" d="M56.8,23.6c-0.8,0-1.5-0.6-1.5-1.4c0,0,0,0,0,0c0-0.8,0.7-1.5,1.5-1.5s1.5,0.7,1.5,1.5S57.6,23.6,56.8,23.6
			C56.8,23.6,56.8,23.6,56.8,23.6z M56.8,21c-0.6,0-1,0.5-1,1c0,0,0,0,0,0c0,0.6,0.4,1.1,1,1.1c0,0,0,0,0,0c0.6,0,1-0.5,1-1
			c0,0,0,0,0,0C57.9,21.6,57.4,21.1,56.8,21C56.8,21,56.8,21,56.8,21L56.8,21z"/>
		<path class="st0" d="M62.1,20.7c0.6,0,1,0.4,1,1.1v1.7h-0.4v-1.6c0-0.5-0.3-0.9-0.7-0.9c-0.4,0-0.8,0.4-0.8,0.8c0,0,0,0,0,0.1v1.6
			h-0.4v-1.6c0-0.5-0.3-0.8-0.7-0.8c-0.5,0-0.8,0.4-0.8,0.8c0,0,0,0,0,0v1.6h-0.4v-2.8h0.4v0.5c0.2-0.3,0.5-0.5,0.9-0.5
			c0.4,0,0.7,0.2,0.9,0.6C61.3,20.9,61.7,20.7,62.1,20.7z"/>
		<path class="st0" d="M65.3,23.6c-0.4,0-0.8-0.2-1.1-0.6v1.4h-0.4v-3.7h0.4v0.6c0.2-0.4,0.6-0.6,1.1-0.6c0.8,0.1,1.4,0.8,1.3,1.6
			C66.6,23,66,23.5,65.3,23.6L65.3,23.6z M65.2,21c-0.6,0-1.1,0.6-1,1.2c0,0.5,0.5,1,1,1c0.5,0,1-0.4,1-1c0,0,0-0.1,0-0.1
			C66.3,21.6,65.8,21.1,65.2,21C65.3,21.1,65.2,21.1,65.2,21L65.2,21L65.2,21z"/>
		<path class="st0" d="M67.4,21.3L67.2,21c0.3-0.2,0.7-0.2,1-0.2c0.8,0,1.2,0.4,1.2,1.1v1.7h-0.4v-0.4c-0.2,0.3-0.6,0.5-1,0.5
			c-0.5,0-1-0.3-1-0.9c0-0.6,0.5-0.9,1.2-0.9c0.3,0,0.6,0,0.9,0.1v-0.1c0-0.5-0.3-0.8-0.8-0.8C67.9,21.1,67.6,21.2,67.4,21.3z
			 M67.4,22.7c0,0.4,0.3,0.6,0.7,0.6c0.5,0,0.9-0.3,0.9-0.8v-0.3c-0.3-0.1-0.5-0.1-0.8-0.1C67.7,22.1,67.4,22.3,67.4,22.7L67.4,22.7
			z"/>
		<path class="st0" d="M70.6,23.5h-0.4v-2.8h0.4v0.5c0.2-0.4,0.6-0.6,1-0.5c0.6,0,1,0.4,1.1,1c0,0,0,0.1,0,0.2v1.7h-0.4v-1.6
			c0-0.4-0.2-0.8-0.7-0.8c0,0-0.1,0-0.1,0c-0.5,0-0.8,0.4-0.8,0.8c0,0,0,0,0,0.1V23.5z"/>
		<path class="st0" d="M74.6,23.7c-0.2,0.6-0.5,0.8-0.9,0.8c-0.2,0-0.4,0-0.6-0.1l0.1-0.3c0.1,0.1,0.3,0.1,0.4,0.1
			c0.2,0,0.4-0.1,0.6-0.5l-1.3-2.8h0.5l1,2.4l0.9-2.4h0.5L74.6,23.7z"/>
	</g>
</g>
</svg>
