<?xml version="1.0" encoding="utf-8"?>
<!-- Generator: Adobe Illustrator 23.0.1, SVG Export Plug-In . SVG Version: 6.00 Build 0)  -->
<svg version="1.1" id="Layer_1" xmlns="http://www.w3.org/2000/svg" xmlns:xlink="http://www.w3.org/1999/xlink" x="0px" y="0px"
	 viewBox="0 0 83.1 13" style="enable-background:new 0 0 83.1 13;" xml:space="preserve">
<style type="text/css">
	.st0{fill:#1D252C;}
</style>
<path id="svg_1" class="st0" d="M68.8,9.9L68.8,9.9L66,0.4h-4.4v12h2.9l-0.2-9.8h0.1l2.9,9.8h4.2v-12h-2.9L68.8,9.9z M12.7,0.4
	l-2.2,12.1h3.2l1.6-11h0.1l1.6,11h3.2L18,0.4C18,0.4,12.7,0.4,12.7,0.4z M30.6,0.4l-1.5,9.3h-0.1l-1.5-9.3h-4.8l-0.3,12.1h3
	l0.1-10.9h0.1l2,10.9h3l2-10.9h0.1l0.1,10.9h3L35.5,0.4L30.6,0.4L30.6,0.4z M3.1,3.5c-0.1-0.2,0-0.5,0-0.6C3.2,2.5,3.5,2,4.2,2
	c0.7,0,1.1,0.4,1.1,1.1v0.8h3V3.1C8.3,0.4,6,0,4.3,0C2.2,0,0.4,0.7,0.1,2.7C0,3.2,0,3.7,0.2,4.3c0.5,2.5,4.7,3.2,5.3,4.8
	c0.1,0.3,0.1,0.7,0,0.9c-0.1,0.4-0.4,0.8-1.2,0.8c-0.7,0-1.2-0.4-1.2-1.1V8.5H0v0.9C0,12.2,2.1,13,4.3,13c2.2,0,3.9-0.7,4.2-2.8
	c0.2-1.1,0-1.7,0-2C8,5.7,3.5,4.9,3.1,3.5z M41.8,3.5c-0.1-0.2,0-0.5,0-0.6c0.1-0.4,0.3-0.8,1.1-0.8c0.7,0,1.1,0.4,1.1,1.1v0.7h2.9
	V3.1c0-2.6-2.3-3-4-3c-2.1,0-3.8,0.7-4.1,2.7c-0.1,0.5-0.1,1,0,1.6c0.5,2.4,4.7,3.2,5.3,4.7c0.1,0.3,0.1,0.7,0,0.9
	c-0.1,0.4-0.4,0.8-1.2,0.8c-0.7,0-1.2-0.4-1.2-1.1V8.5h-3.2v0.9c0,2.7,2.1,3.5,4.3,3.5c2.1,0,3.9-0.7,4.2-2.7c0.1-1,0-1.7,0-2
	C46.6,5.7,42.1,4.9,41.8,3.5z M55.2,9.3c0,0.1,0,0.3,0,0.5c-0.1,0.3-0.3,0.9-1.1,0.9c-0.8,0-1.1-0.6-1.1-0.9c0-0.1,0-0.3,0-0.5v-9
	h-3v8.7c0,0.2,0,0.7,0,0.8c0.2,2.3,2,3,4.1,3s3.9-0.7,4.2-3c0-0.1,0-0.6,0-0.8V0.4h-3V9.3L55.2,9.3z M78.9,5.7v1.8h1.2v1.8
	c0,0.1,0,0.3,0,0.5c0,0.3-0.4,0.9-1.2,0.9c-0.9,0-1.2-0.5-1.2-0.9c0-0.1,0-0.3,0-0.5V3.7c0-0.2,0-0.4,0-0.6c0.1-0.3,0.3-0.9,1.2-0.9
	c0.9,0,1.1,0.6,1.2,0.9c0,0.2,0,0.5,0,0.5v0.7h3V3.8c0,0,0-0.4,0-0.8c-0.2-2.3-2.1-3-4.2-3s-3.9,0.7-4.2,3c0,0.2,0,0.6,0,0.8v5.1
	c0,0.2,0,0.4,0,0.8c0.2,2.2,2.1,3,4.2,3c2.1,0,4-0.8,4.2-3c0-0.4,0-0.6,0-0.8V5.7C83.1,5.7,78.9,5.7,78.9,5.7z"/>
</svg>
