<?xml version="1.0" encoding="utf-8"?>
<!-- Generator: Adobe Illustrator 23.0.1, SVG Export Plug-In . SVG Version: 6.00 Build 0)  -->
<svg version="1.1" id="Layer_1" xmlns="http://www.w3.org/2000/svg" xmlns:xlink="http://www.w3.org/1999/xlink" x="0px" y="0px"
	 viewBox="0 0 68.2 12" style="enable-background:new 0 0 68.2 12;" xml:space="preserve">
<style type="text/css">
	.st0{fill:#1D252C;}
</style>
<path id="path4258" class="st0" d="M24.3,12c-2.5,0-4.8-0.7-6.3-2.1c-1.2-1-1.7-2.4-1.7-3.9c0-1.4,0.6-2.9,1.7-3.9
	C19.4,0.8,21.9,0,24.3,0c2.6,0,4.7,0.7,6.3,2.1c1.1,1,1.7,2.4,1.7,3.9c0,1.4-0.6,2.9-1.7,3.9C29.1,11.3,26.8,12,24.3,12v-1.6
	c1.3,0,2.5-0.5,3.4-1.3c0.8-0.8,1.2-1.9,1.2-3.1c0-1.2-0.4-2.3-1.2-3.1c-0.8-0.8-2.1-1.3-3.4-1.3S21.7,2,20.9,2.8
	c-0.8,0.8-1.2,1.9-1.2,3.1c0,1.2,0.4,2.3,1.2,3.1c0.8,0.8,2.1,1.3,3.4,1.3V12L24.3,12z M6.2,0C4.9,0,3.4,0.3,2.1,0.8
	C1,1.4,0,2.2,0,3.6c0,1.3,0.8,2,0.8,2c0.3,0.3,0.9,0.9,2.3,1.2c0.6,0.1,2,0.4,3.4,0.5c1.4,0.1,2.7,0.3,3.2,0.4
	c0.4,0.1,1.2,0.3,1.2,1.1c0,0.8-0.8,1.1-0.9,1.1c-0.1,0-1.1,0.5-2.7,0.5c-1.2,0-2.7-0.4-3.2-0.6C3.5,9.6,2.8,9.3,2.2,8.6
	C2.1,8.4,1.8,7.9,1.8,7.4H0.3v4.2H2V11c0-0.1,0.1-0.3,0.4-0.2c0.4,0.2,1.4,0.6,2.4,0.8c0.9,0.2,1.4,0.3,2.5,0.3
	c1.8,0,2.7-0.3,3.4-0.5c0.6-0.2,1.4-0.5,2-1c0.3-0.3,1.1-1,1.1-2.2c0-1.2-0.6-1.9-0.9-2.2c-0.3-0.3-0.7-0.6-1.1-0.7
	C11.5,5.2,11,5,10.5,4.9C9.7,4.7,7.7,4.4,6.8,4.3c-1-0.1-2.7-0.2-3.3-0.4C3.3,3.8,2.8,3.6,2.8,3.1c0-0.3,0.2-0.6,0.6-0.9
	C4,1.9,5.2,1.6,6.5,1.6C8,1.6,9.2,1.9,10,2.3c0.3,0.1,0.6,0.3,0.9,0.5c0.3,0.2,0.7,0.7,0.8,1.4h1.4V0.5h-1.5v0.4
	c0,0.1-0.1,0.3-0.4,0.2C10.5,0.8,8.6,0,6.2,0 M39.2,0.7l7.3,6.6l-0.1-4.4c0-0.6-0.1-0.8-0.8-0.8h-1.4V0.7h6.3V2h-1.3
	c-0.6,0-0.7,0.2-0.7,0.8l0.1,8.5h-2.1L38,3.8v5.4c0,0.6,0,0.9,0.6,0.9h1.5v1.3H34V10h1.4C36,10,36,9.5,36,9.1V2.9
	C36,2.5,35.9,2,35.1,2h-1.2V0.7H39.2z M57.7,10c0.1,0,0.3,0,0.4,0c0.1,0,0.2-0.1,0.3-0.3c0,0,0-0.2,0-0.3V7.3c0-0.1,0-0.1-0.1-0.2
	s-3.8-4.4-4-4.6C54.1,2.4,53.7,2,53.2,2h-1.3V0.7h7.4V2h-0.9c-0.2,0-0.3,0.2-0.2,0.4c0,0,2.5,3,2.5,3c0,0,0,0,0.1,0c0,0,2.5-3,2.6-3
	C63.4,2.3,63.3,2,63,2h-0.9V0.7h6V2h-1.4c-0.5,0-0.7,0.1-1.1,0.5c-0.2,0.2-3.9,4.5-4.1,4.6c-0.1,0.1-0.1,0.1-0.1,0.2v2.1
	c0,0,0,0.2,0,0.3c0.1,0.1,0.1,0.2,0.3,0.3c0.1,0,0.3,0,0.4,0h1.4v1.3h-7.3V10L57.7,10L57.7,10z"/>
</svg>
