<?xml version="1.0" encoding="utf-8"?>
<!-- Generator: Adobe Illustrator 24.0.3, SVG Export Plug-In . SVG Version: 6.00 Build 0)  -->
<svg version="1.1" id="Layer_1" xmlns="http://www.w3.org/2000/svg" xmlns:xlink="http://www.w3.org/1999/xlink" x="0px" y="0px"
	 viewBox="0 0 841.89 595.28" style="enable-background:new 0 0 841.89 595.28;" xml:space="preserve">
<style type="text/css">
	.st0{fill:#231F20;}
	.st1{fill:#FFFFFF;}
</style>
<polygon class="st0" points="480.05,215.63 442.71,215.63 442.71,377.21 557.38,377.21 557.38,345.75 480.05,345.75 "/>
<g>
	<path class="st0" d="M639.51,315.63h30.39v28.25c-5.6,2.14-16.52,4.28-26.92,4.28c-33.61,0-44.81-17.08-44.81-51.74
		c0-33.06,10.66-52.53,44.26-52.53c18.68,0,29.33,5.87,38.13,17.07l23.21-21.33c-14.14-20.26-38.94-26.39-62.14-26.39
		c-52.26,0-79.73,28.53-79.73,82.92c0,54.14,24.8,83.47,79.46,83.47c25.07,0,49.6-6.4,62.93-15.73v-78.4h-64.79V315.63z"/>
</g>
<g>
	<path class="st0" d="M261.86,422.09c69.03,0,124.99-55.99,124.99-124.99c0-69.04-55.96-124.97-124.99-124.97
		c-69.03,0-124.99,55.93-124.99,124.97C136.86,366.1,192.83,422.09,261.86,422.09"/>
	<polygon class="st1" points="256.89,242.24 256.89,351.8 291.71,351.8 291.71,342.03 266.82,342.03 266.82,242.24 	"/>
	<path class="st1" d="M221.95,272.16c8.29,0,15.01-6.72,15.01-14.97c0-8.28-6.72-15-15.01-15c-8.24,0-14.96,6.72-14.96,15
		C206.99,265.43,213.71,272.16,221.95,272.16"/>
	<path class="st1" d="M266.82,192.52c-1.26-0.05-3.75-0.08-4.96-0.08c-57.65,0-104.58,46.94-104.58,104.62
		c0,27.93,10.84,54.2,30.58,73.94c19.81,19.78,46.09,30.64,74,30.64c27.92,0,54.2-10.86,74-30.64
		c19.74-19.74,30.59-46.01,30.59-73.94v-4.77l-4.18,0.02h-70.49v9.72h64.74v1.41c-3.33,49.33-44.51,88.45-94.65,88.45
		c-25.31,0-49.11-9.86-67.04-27.77c-17.93-17.9-27.79-41.72-27.79-67.05c0-25.33,9.87-49.15,27.79-67.06
		c17.93-17.93,41.72-27.79,67.04-27.79c1.15,0,3.82,0.03,4.96,0.06V192.52z"/>
</g>
</svg>
